Normalized EMG Linear Envelopes
nRows=59
nColumns=17

endheader
time	        VM	        VL	        RF	       GRA	        TA	   ADDLONG	   SEMIMEM	      BFLH	        GM	        GL	       TFL	   GLUTMAX	   GLUTMED	      PIRI	    OBTINT	        QF	
2.39	  0.410303	  0.315374	  0.057156	  0.327170	  0.115856	  0.263424	  0.349812	  0.217303	  0.230310	  0.233608	  0.142879	  0.227255	  0.156830	  0.378070	  0.848163	  0.356868	
2.3905	  0.410454	  0.316818	  0.058270	  0.324194	  0.115297	  0.264913	  0.344152	  0.214524	  0.229641	  0.233855	  0.144715	  0.227628	  0.158463	  0.378312	  0.855938	  0.353238	
2.391	  0.410556	  0.318232	  0.059398	  0.321266	  0.114739	  0.266369	  0.338520	  0.211752	  0.228948	  0.234104	  0.146546	  0.227989	  0.160089	  0.378548	  0.863896	  0.349610	
2.3915	  0.410608	  0.319615	  0.060541	  0.318387	  0.114181	  0.267792	  0.332918	  0.208986	  0.228231	  0.234355	  0.148370	  0.228338	  0.161708	  0.378779	  0.872037	  0.345988	
2.392	  0.410609	  0.320968	  0.061698	  0.315557	  0.113625	  0.269180	  0.327347	  0.206228	  0.227493	  0.234606	  0.150187	  0.228673	  0.163318	  0.379003	  0.880363	  0.342372	
2.3925	  0.410558	  0.322291	  0.062869	  0.312777	  0.113070	  0.270534	  0.321811	  0.203479	  0.226734	  0.234858	  0.151995	  0.228996	  0.164918	  0.379221	  0.888875	  0.338763	
2.393	  0.410456	  0.323582	  0.064055	  0.310049	  0.112517	  0.271854	  0.316310	  0.200739	  0.225957	  0.235111	  0.153795	  0.229305	  0.166507	  0.379432	  0.897574	  0.335163	
2.3935	  0.410302	  0.324842	  0.065255	  0.307373	  0.111967	  0.273138	  0.310847	  0.198010	  0.225162	  0.235365	  0.155585	  0.229600	  0.168083	  0.379635	  0.906462	  0.331574	
2.394	  0.410094	  0.326070	  0.066470	  0.304749	  0.111418	  0.274387	  0.305424	  0.195292	  0.224350	  0.235619	  0.157364	  0.229881	  0.169647	  0.379831	  0.915539	  0.327996	
2.3945	  0.409832	  0.327266	  0.067699	  0.302179	  0.110872	  0.275599	  0.300043	  0.192587	  0.223524	  0.235873	  0.159131	  0.230147	  0.171195	  0.380019	  0.924807	  0.324431	
2.395	  0.409514	  0.328429	  0.068942	  0.299663	  0.110328	  0.276774	  0.294704	  0.189894	  0.222685	  0.236128	  0.160886	  0.230398	  0.172727	  0.380199	  0.934267	  0.320881	
2.3955	  0.409140	  0.329559	  0.070199	  0.297203	  0.109787	  0.277913	  0.289411	  0.187216	  0.221833	  0.236382	  0.162628	  0.230635	  0.174241	  0.380371	  0.943919	  0.317346	
2.396	  0.408709	  0.330654	  0.071470	  0.294797	  0.109249	  0.279013	  0.284164	  0.184552	  0.220971	  0.236635	  0.164356	  0.230856	  0.175737	  0.380536	  0.953765	  0.313828	
2.3965	  0.408218	  0.331715	  0.072754	  0.292449	  0.108714	  0.280076	  0.278965	  0.181904	  0.220098	  0.236888	  0.166069	  0.231062	  0.177213	  0.380694	  0.963805	  0.310328	
2.397	  0.407669	  0.332739	  0.074053	  0.290157	  0.108181	  0.281101	  0.273815	  0.179273	  0.219217	  0.237141	  0.167768	  0.231252	  0.178667	  0.380845	  0.974041	  0.306848	
2.3975	  0.407058	  0.333727	  0.075364	  0.287923	  0.107652	  0.282088	  0.268717	  0.176659	  0.218329	  0.237392	  0.169451	  0.231426	  0.180098	  0.380990	  0.984474	  0.303388	
2.398	  0.406386	  0.334678	  0.076689	  0.285747	  0.107126	  0.283038	  0.263671	  0.174062	  0.217434	  0.237642	  0.171118	  0.231584	  0.181505	  0.381129	  0.995106	  0.299951	
2.3985	  0.405652	  0.335590	  0.078027	  0.283631	  0.106603	  0.283951	  0.258679	  0.171484	  0.216533	  0.237891	  0.172770	  0.231727	  0.182888	  0.381262	  1.005938	  0.296537	
2.399	  0.404854	  0.336462	  0.079378	  0.281575	  0.106084	  0.284828	  0.253742	  0.168926	  0.215629	  0.238138	  0.174405	  0.231853	  0.184244	  0.381389	  1.016972	  0.293147	
2.3995	  0.403993	  0.337294	  0.080742	  0.279580	  0.105568	  0.285669	  0.248862	  0.166387	  0.214722	  0.238383	  0.176024	  0.231964	  0.185573	  0.381512	  1.028210	  0.289782	
2.4	  0.403068	  0.338084	  0.082118	  0.277646	  0.105056	  0.286476	  0.244039	  0.163869	  0.213814	  0.238626	  0.177627	  0.232060	  0.186873	  0.381630	  1.039653	  0.286444	
2.4005	  0.402078	  0.338831	  0.083506	  0.275775	  0.104547	  0.287248	  0.239275	  0.161372	  0.212904	  0.238865	  0.179214	  0.232140	  0.188145	  0.381745	  1.051303	  0.283134	
2.401	  0.401023	  0.339534	  0.084906	  0.273966	  0.104042	  0.287987	  0.234571	  0.158896	  0.211996	  0.239102	  0.180783	  0.232204	  0.189387	  0.381855	  1.063162	  0.279852	
2.4015	  0.399901	  0.340193	  0.086318	  0.272220	  0.103540	  0.288693	  0.229929	  0.156443	  0.211089	  0.239335	  0.182336	  0.232254	  0.190599	  0.381964	  1.075230	  0.276600	
2.402	  0.398714	  0.340805	  0.087742	  0.270538	  0.103042	  0.289366	  0.225348	  0.154013	  0.210185	  0.239564	  0.183871	  0.232289	  0.191779	  0.382071	  1.087508	  0.273380	
2.4025	  0.397461	  0.341370	  0.089177	  0.268920	  0.102547	  0.290008	  0.220830	  0.151605	  0.209285	  0.239789	  0.185389	  0.232309	  0.192927	  0.382178	  1.099998	  0.270192	
2.403	  0.396143	  0.341886	  0.090622	  0.267367	  0.102056	  0.290620	  0.216376	  0.149222	  0.208390	  0.240010	  0.186889	  0.232315	  0.194041	  0.382286	  1.112700	  0.267037	
2.4035	  0.394760	  0.342354	  0.092078	  0.265881	  0.101569	  0.291201	  0.211986	  0.146862	  0.207500	  0.240228	  0.188372	  0.232306	  0.195123	  0.382396	  1.125614	  0.263918	
2.404	  0.393313	  0.342771	  0.093545	  0.264461	  0.101085	  0.291755	  0.207661	  0.144528	  0.206617	  0.240441	  0.189838	  0.232282	  0.196170	  0.382508	  1.138740	  0.260835	
2.4045	  0.391801	  0.343137	  0.095021	  0.263108	  0.100605	  0.292281	  0.203403	  0.142218	  0.205742	  0.240651	  0.191286	  0.232243	  0.197184	  0.382624	  1.152078	  0.257790	
2.405	  0.390227	  0.343451	  0.096507	  0.261824	  0.100129	  0.292782	  0.199211	  0.139934	  0.204875	  0.240858	  0.192718	  0.232189	  0.198164	  0.382744	  1.165627	  0.254783	
2.4055	  0.388589	  0.343713	  0.098001	  0.260609	  0.099656	  0.293258	  0.195086	  0.137676	  0.204017	  0.241061	  0.194133	  0.232121	  0.199111	  0.382870	  1.179387	  0.251816	
2.406	  0.386889	  0.343921	  0.099505	  0.259464	  0.099187	  0.293710	  0.191030	  0.135444	  0.203169	  0.241262	  0.195532	  0.232037	  0.200026	  0.383002	  1.193356	  0.248889	
2.4065	  0.385127	  0.344074	  0.101017	  0.258390	  0.098722	  0.294141	  0.187041	  0.133240	  0.202333	  0.241459	  0.196915	  0.231939	  0.200907	  0.383141	  1.207532	  0.246005	
2.407	  0.383305	  0.344173	  0.102537	  0.257387	  0.098261	  0.294551	  0.183121	  0.131062	  0.201508	  0.241654	  0.198282	  0.231824	  0.201757	  0.383287	  1.221913	  0.243163	
2.4075	  0.381424	  0.344217	  0.104065	  0.256457	  0.097804	  0.294942	  0.179270	  0.128912	  0.200695	  0.241846	  0.199635	  0.231694	  0.202575	  0.383441	  1.236499	  0.240365	
2.408	  0.379484	  0.344205	  0.105600	  0.255600	  0.097351	  0.295315	  0.175488	  0.126790	  0.199896	  0.242037	  0.200974	  0.231548	  0.203362	  0.383603	  1.251286	  0.237612	
2.4085	  0.377489	  0.344138	  0.107142	  0.254816	  0.096903	  0.295671	  0.171776	  0.124695	  0.199110	  0.242226	  0.202298	  0.231386	  0.204118	  0.383774	  1.266272	  0.234905	
2.409	  0.375439	  0.344015	  0.108690	  0.254107	  0.096459	  0.296012	  0.168134	  0.122629	  0.198338	  0.242414	  0.203608	  0.231206	  0.204844	  0.383953	  1.281455	  0.232245	
2.4095	  0.373335	  0.343835	  0.110244	  0.253472	  0.096020	  0.296337	  0.164562	  0.120591	  0.197581	  0.242601	  0.204905	  0.231010	  0.205540	  0.384142	  1.296831	  0.229633	
2.41	  0.371179	  0.343600	  0.111804	  0.252913	  0.095585	  0.296649	  0.161061	  0.118582	  0.196839	  0.242787	  0.206188	  0.230796	  0.206206	  0.384340	  1.312397	  0.227071	
2.4105	  0.368973	  0.343307	  0.113368	  0.252429	  0.095155	  0.296948	  0.157630	  0.116602	  0.196113	  0.242972	  0.207458	  0.230563	  0.206844	  0.384547	  1.328149	  0.224558	
2.411	  0.366716	  0.342959	  0.114937	  0.252022	  0.094730	  0.297235	  0.154270	  0.114651	  0.195403	  0.243157	  0.208716	  0.230312	  0.207454	  0.384763	  1.344084	  0.222096	
2.4115	  0.364412	  0.342555	  0.116510	  0.251691	  0.094309	  0.297511	  0.150980	  0.112729	  0.194711	  0.243342	  0.209961	  0.230041	  0.208037	  0.384990	  1.360196	  0.219686	
2.412	  0.362059	  0.342095	  0.118087	  0.251437	  0.093894	  0.297777	  0.147760	  0.110836	  0.194036	  0.243527	  0.211194	  0.229751	  0.208594	  0.385225	  1.376482	  0.217328	
2.4125	  0.359660	  0.341580	  0.119667	  0.251261	  0.093484	  0.298033	  0.144612	  0.108972	  0.193378	  0.243712	  0.212415	  0.229439	  0.209125	  0.385471	  1.392936	  0.215024	
2.413	  0.357215	  0.341011	  0.121250	  0.251163	  0.093079	  0.298282	  0.141533	  0.107138	  0.192739	  0.243896	  0.213625	  0.229106	  0.209631	  0.385725	  1.409552	  0.212775	
2.4135	  0.354726	  0.340387	  0.122835	  0.251143	  0.092680	  0.298524	  0.138526	  0.105334	  0.192118	  0.244080	  0.214825	  0.228750	  0.210113	  0.385989	  1.426326	  0.210580	
2.414	  0.352193	  0.339710	  0.124423	  0.251202	  0.092287	  0.298760	  0.135588	  0.103558	  0.191516	  0.244264	  0.216015	  0.228370	  0.210571	  0.386262	  1.443251	  0.208440	
2.4145	  0.349619	  0.338980	  0.126011	  0.251341	  0.091901	  0.298991	  0.132720	  0.101813	  0.190934	  0.244447	  0.217195	  0.227966	  0.211007	  0.386543	  1.460322	  0.206356	
2.415	  0.347004	  0.338198	  0.127601	  0.251561	  0.091521	  0.299219	  0.129923	  0.100096	  0.190372	  0.244630	  0.218366	  0.227537	  0.211420	  0.386833	  1.477531	  0.204328	
2.4155	  0.344350	  0.337365	  0.129191	  0.251861	  0.091148	  0.299445	  0.127195	  0.098410	  0.189830	  0.244812	  0.219528	  0.227082	  0.211812	  0.387130	  1.494872	  0.202358	
2.416	  0.341659	  0.336483	  0.130782	  0.252242	  0.090782	  0.299670	  0.124537	  0.096752	  0.189309	  0.244993	  0.220682	  0.226600	  0.212184	  0.387434	  1.512337	  0.200444	
2.4165	  0.338931	  0.335552	  0.132372	  0.252705	  0.090424	  0.299895	  0.121947	  0.095124	  0.188809	  0.245173	  0.221828	  0.226090	  0.212535	  0.387745	  1.529918	  0.198587	
2.417	  0.336169	  0.334574	  0.133961	  0.253249	  0.090072	  0.300121	  0.119427	  0.093526	  0.188331	  0.245350	  0.222967	  0.225551	  0.212866	  0.388061	  1.547608	  0.196788	
2.4175	  0.333374	  0.333550	  0.135549	  0.253877	  0.089728	  0.300348	  0.116975	  0.091957	  0.187875	  0.245526	  0.224099	  0.224983	  0.213178	  0.388382	  1.565397	  0.195046	
2.418	  0.330548	  0.332482	  0.137135	  0.254586	  0.089392	  0.300578	  0.114592	  0.090418	  0.187441	  0.245700	  0.225225	  0.224384	  0.213471	  0.388707	  1.583276	  0.193363	
2.4185	  0.327694	  0.331370	  0.138720	  0.255379	  0.089064	  0.300812	  0.112276	  0.088908	  0.187032	  0.245871	  0.226344	  0.223754	  0.213746	  0.389034	  1.601236	  0.191737	
2.419	  0.324812	  0.330217	  0.140302	  0.256254	  0.088744	  0.301050	  0.110028	  0.087428	  0.186646	  0.246038	  0.227459	  0.223093	  0.214002	  0.389364	  1.619266	  0.190169	
